# xmcd
#
# Track frame offsets:
# 150
# 11439
# 25856
# 43483
# 59962
# 69977
# 83406
# 97476
# 101903
# 114556
# 128010
#
# Disc length: 1882 seconds
#
# Revision: 1
# Processed by: cddbd v1.5.2PL0 Copyright (c) Steve Scherf et al.
# Submitted via: CedeCatalogueitor 2.6.0.6 http://personales.ya.com/cdcatalogueitor
#
DISCID=9a07580b
DTITLE=Siwel - Siwel
DYEAR=1900
DGENRE=
TTITLE0=Dreams
TTITLE1=Straight From My Heart
TTITLE2=I'd Like
TTITLE3=Call Me Mr.sad (radio Edit)
TTITLE4=I Didn't Need To Know Your Name
TTITLE5=(Still) No Name
TTITLE6=The Ballad I Wanted You To Listen To
TTITLE7=
TTITLE8=No Mistake
TTITLE9=Time
TTITLE10=Rest In Peace (alive In My Heart)
EXTD=
EXTT0=
EXTT1=
EXTT2=
EXTT3=
EXTT4=
EXTT5=
EXTT6=
EXTT7=
EXTT8=
EXTT9=
EXTT10=
PLAYORDER=
